<svg width="400" height="185" viewBox="0 0 400 185" fill="none" xmlns="http://www.w3.org/2000/svg">
<path d="M48.6681 29.9799C52.5116 20.6905 60.2727 13.3698 71.7289 8.22363C82.7054 3.29175 96.6144 0.548637 113.065 0.0743071C146.788 -0.900069 187.499 7.73502 227.689 24.3966C230.579 25.5938 233.443 26.8225 236.276 28.0826L232.27 28.094C230.551 27.3483 228.817 26.6139 227.07 25.891C144.726 -8.23789 65.3641 -6.12627 50.1615 30.6C45.7584 41.2353 47.2118 53.6221 53.4996 66.6862C68.9163 98.7406 113.425 134.861 171.928 159.109C177.587 161.455 183.252 163.638 188.909 165.658C223.229 177.922 257.126 184.137 285.887 183.306C302.126 182.837 315.824 180.142 326.606 175.299C337.677 170.327 345.155 163.295 348.836 154.4C352.157 146.374 352.145 137.35 349.236 127.789L350.478 126.386C353.887 136.924 353.842 146.545 350.332 155.02C346.486 164.31 338.727 171.63 327.268 176.776C316.292 181.708 302.386 184.451 285.935 184.926C284.216 184.974 282.48 185 280.727 185C251.735 185 218.061 178.237 184.18 165.658C179.889 164.067 175.597 162.381 171.308 160.603C131.117 143.945 96.2289 121.248 73.071 96.6947C63.9649 87.0395 57.066 77.5129 52.4944 68.2863C51.3922 66.0661 50.4271 63.8659 49.599 61.6857C45.1359 49.9389 44.8218 39.2722 48.6681 29.9799Z" fill="url(#paint0_linear_24_2)"/>
<path d="M48.6681 29.9799C52.5116 20.6905 60.2727 13.3698 71.7289 8.22363C82.7054 3.29175 96.6144 0.548637 113.065 0.0743071C146.788 -0.900069 187.499 7.73502 227.689 24.3966C230.579 25.5938 233.443 26.8225 236.276 28.0826L232.27 28.094C230.551 27.3483 228.817 26.6139 227.07 25.891C144.726 -8.23789 65.3641 -6.12627 50.1615 30.6C45.7584 41.2353 47.2118 53.6221 53.4996 66.6862C68.9163 98.7406 113.425 134.861 171.928 159.109C177.587 161.455 183.252 163.638 188.909 165.658C223.229 177.922 257.126 184.137 285.887 183.306C302.126 182.837 315.824 180.142 326.606 175.299C337.677 170.327 345.155 163.295 348.836 154.4C352.157 146.374 352.145 137.35 349.236 127.789L350.478 126.386C353.887 136.924 353.842 146.545 350.332 155.02C346.486 164.31 338.727 171.63 327.268 176.776C316.292 181.708 302.386 184.451 285.935 184.926C284.216 184.974 282.48 185 280.727 185C251.735 185 218.061 178.237 184.18 165.658C179.889 164.067 175.597 162.381 171.308 160.603C131.117 143.945 96.2289 121.248 73.071 96.6947C63.9649 87.0395 57.066 77.5129 52.4944 68.2863C51.3922 66.0661 50.4271 63.8659 49.599 61.6857C45.1359 49.9389 44.8218 39.2722 48.6681 29.9799Z" fill="url(#paint1_radial_24_2)"/>
<path d="M48.6681 29.9799C52.5116 20.6905 60.2727 13.3698 71.7289 8.22363C82.7054 3.29175 96.6144 0.548637 113.065 0.0743071C146.788 -0.900069 187.499 7.73502 227.689 24.3966C230.579 25.5938 233.443 26.8225 236.276 28.0826L232.27 28.094C230.551 27.3483 228.817 26.6139 227.07 25.891C144.726 -8.23789 65.3641 -6.12627 50.1615 30.6C45.7584 41.2353 47.2118 53.6221 53.4996 66.6862C68.9163 98.7406 113.425 134.861 171.928 159.109C177.587 161.455 183.252 163.638 188.909 165.658C223.229 177.922 257.126 184.137 285.887 183.306C302.126 182.837 315.824 180.142 326.606 175.299C337.677 170.327 345.155 163.295 348.836 154.4C352.157 146.374 352.145 137.35 349.236 127.789L350.478 126.386C353.887 136.924 353.842 146.545 350.332 155.02C346.486 164.31 338.727 171.63 327.268 176.776C316.292 181.708 302.386 184.451 285.935 184.926C284.216 184.974 282.48 185 280.727 185C251.735 185 218.061 178.237 184.18 165.658C179.889 164.067 175.597 162.381 171.308 160.603C131.117 143.945 96.2289 121.248 73.071 96.6947C63.9649 87.0395 57.066 77.5129 52.4944 68.2863C51.3922 66.0661 50.4271 63.8659 49.599 61.6857C45.1359 49.9389 44.8218 39.2722 48.6681 29.9799Z" fill="url(#paint2_radial_24_2)"/>
<path d="M48.6681 29.9799C52.5116 20.6905 60.2727 13.3698 71.7289 8.22363C82.7054 3.29175 96.6144 0.548637 113.065 0.0743071C146.788 -0.900069 187.499 7.73502 227.689 24.3966C230.579 25.5938 233.443 26.8225 236.276 28.0826L232.27 28.094C230.551 27.3483 228.817 26.6139 227.07 25.891C144.726 -8.23789 65.3641 -6.12627 50.1615 30.6C45.7584 41.2353 47.2118 53.6221 53.4996 66.6862C68.9163 98.7406 113.425 134.861 171.928 159.109C177.587 161.455 183.252 163.638 188.909 165.658C223.229 177.922 257.126 184.137 285.887 183.306C302.126 182.837 315.824 180.142 326.606 175.299C337.677 170.327 345.155 163.295 348.836 154.4C352.157 146.374 352.145 137.35 349.236 127.789L350.478 126.386C353.887 136.924 353.842 146.545 350.332 155.02C346.486 164.31 338.727 171.63 327.268 176.776C316.292 181.708 302.386 184.451 285.935 184.926C284.216 184.974 282.48 185 280.727 185C251.735 185 218.061 178.237 184.18 165.658C179.889 164.067 175.597 162.381 171.308 160.603C131.117 143.945 96.2289 121.248 73.071 96.6947C63.9649 87.0395 57.066 77.5129 52.4944 68.2863C51.3922 66.0661 50.4271 63.8659 49.599 61.6857C45.1359 49.9389 44.8218 39.2722 48.6681 29.9799Z" fill="url(#paint3_radial_24_2)"/>
<g filter="url(#filter0_d_24_2)">
<path d="M97.6034 34.4V53.12H63.7634V68H88.7234V85.88H63.7634V119H40.2434V34.4H97.6034ZM143.029 101H169.309V119H119.509V34.4H143.029V101ZM231.014 119.84C223.094 119.84 215.814 118 209.174 114.32C202.534 110.56 197.254 105.4 193.334 98.84C189.494 92.2 187.574 84.72 187.574 76.4C187.574 68.08 189.494 60.64 193.334 54.08C197.254 47.44 202.534 42.28 209.174 38.6C215.814 34.92 223.094 33.08 231.014 33.08C239.014 33.08 246.294 34.92 252.854 38.6C259.494 42.28 264.734 47.44 268.574 54.08C272.414 60.64 274.334 68.08 274.334 76.4C274.334 84.72 272.414 92.2 268.574 98.84C264.734 105.4 259.494 110.56 252.854 114.32C246.214 118 238.934 119.84 231.014 119.84ZM231.014 98C237.014 98 241.734 96.04 245.174 92.12C248.694 88.2 250.454 82.96 250.454 76.4C250.454 69.68 248.694 64.4 245.174 60.56C241.734 56.64 237.014 54.68 231.014 54.68C224.934 54.68 220.174 56.64 216.734 60.56C213.294 64.4 211.574 69.68 211.574 76.4C211.574 83.04 213.294 88.32 216.734 92.24C220.174 96.08 224.934 98 231.014 98ZM363.748 62.6C363.748 67.72 362.548 72.4 360.148 76.64C357.828 80.8 354.268 84.16 349.468 86.72C344.748 89.2 338.948 90.44 332.068 90.44H320.428V119H296.908V34.4H332.068C338.868 34.4 344.628 35.6 349.348 38C354.148 40.4 357.748 43.72 360.148 47.96C362.548 52.2 363.748 57.08 363.748 62.6ZM329.788 71.72C336.428 71.72 339.748 68.68 339.748 62.6C339.748 56.44 336.428 53.36 329.788 53.36H320.428V71.72H329.788Z" fill="white"/>
<path d="M97.6034 34.4H102.603C102.603 31.6386 100.365 29.4 97.6034 29.4V34.4ZM97.6034 53.12V58.12C100.365 58.12 102.603 55.8814 102.603 53.12H97.6034ZM63.7634 53.12V48.12C61.002 48.12 58.7634 50.3586 58.7634 53.12H63.7634ZM63.7634 68H58.7634C58.7634 70.7614 61.002 73 63.7634 73V68ZM88.7234 68H93.7234C93.7234 65.2386 91.4849 63 88.7234 63V68ZM88.7234 85.88V90.88C91.4849 90.88 93.7234 88.6414 93.7234 85.88H88.7234ZM63.7634 85.88V80.88C61.002 80.88 58.7634 83.1186 58.7634 85.88H63.7634ZM63.7634 119V124C66.5249 124 68.7634 121.761 68.7634 119H63.7634ZM40.2434 119H35.2434C35.2434 121.761 37.482 124 40.2434 124V119ZM40.2434 34.4V29.4C37.482 29.4 35.2434 31.6386 35.2434 34.4H40.2434ZM92.6034 34.4V53.12H102.603V34.4H92.6034ZM97.6034 48.12H63.7634V58.12H97.6034V48.12ZM58.7634 53.12V68H68.7634V53.12H58.7634ZM63.7634 73H88.7234V63H63.7634V73ZM83.7234 68V85.88H93.7234V68H83.7234ZM88.7234 80.88H63.7634V90.88H88.7234V80.88ZM58.7634 85.88V119H68.7634V85.88H58.7634ZM63.7634 114H40.2434V124H63.7634V114ZM45.2434 119V34.4H35.2434V119H45.2434ZM40.2434 39.4H97.6034V29.4H40.2434V39.4ZM143.029 101H138.029C138.029 103.761 140.268 106 143.029 106V101ZM169.309 101H174.309C174.309 98.2386 172.07 96 169.309 96V101ZM169.309 119V124C172.07 124 174.309 121.761 174.309 119H169.309ZM119.509 119H114.509C114.509 121.761 116.748 124 119.509 124V119ZM119.509 34.4V29.4C116.748 29.4 114.509 31.6386 114.509 34.4H119.509ZM143.029 34.4H148.029C148.029 31.6386 145.79 29.4 143.029 29.4V34.4ZM143.029 106H169.309V96H143.029V106ZM164.309 101V119H174.309V101H164.309ZM169.309 114H119.509V124H169.309V114ZM124.509 119V34.4H114.509V119H124.509ZM119.509 39.4H143.029V29.4H119.509V39.4ZM138.029 34.4V101H148.029V34.4H138.029ZM209.174 114.32L206.711 118.671C206.724 118.678 206.737 118.686 206.751 118.693L209.174 114.32ZM193.334 98.84L189.006 101.343C189.018 101.364 189.03 101.384 189.042 101.405L193.334 98.84ZM193.334 54.08L189.029 51.5381C189.026 51.5434 189.022 51.5488 189.019 51.5541L193.334 54.08ZM252.854 38.6L250.408 42.9607C250.416 42.9649 250.423 42.9691 250.431 42.9733L252.854 38.6ZM268.574 54.08L264.246 56.5831C264.25 56.5907 264.255 56.5983 264.259 56.6059L268.574 54.08ZM268.574 98.84L272.889 101.366C272.894 101.358 272.898 101.351 272.903 101.343L268.574 98.84ZM252.854 114.32L255.278 118.693C255.291 118.686 255.305 118.678 255.318 118.671L252.854 114.32ZM245.174 92.12L241.454 88.7794C241.441 88.7935 241.429 88.8078 241.416 88.822L245.174 92.12ZM245.174 60.56L241.416 63.8579C241.44 63.8851 241.464 63.912 241.489 63.9386L245.174 60.56ZM216.734 60.56L220.459 63.8962C220.47 63.8835 220.481 63.8708 220.493 63.8579L216.734 60.56ZM216.734 92.24L212.976 95.5379C212.988 95.5508 212.999 95.5635 213.01 95.5762L216.734 92.24ZM231.014 114.84C223.904 114.84 217.464 113.198 211.598 109.947L206.751 118.693C214.165 122.802 222.284 124.84 231.014 124.84V114.84ZM211.638 109.969C205.753 106.637 201.103 102.093 197.626 96.2752L189.042 101.405C193.406 108.707 199.316 114.483 206.711 118.671L211.638 109.969ZM197.663 96.3369C194.3 90.5215 192.574 83.9179 192.574 76.4H182.574C182.574 85.5221 184.689 93.8785 189.006 101.343L197.663 96.3369ZM192.574 76.4C192.574 68.8814 194.3 62.3284 197.649 56.6059L189.019 51.5541C184.689 58.9516 182.574 67.2786 182.574 76.4H192.574ZM197.64 56.6219C201.115 50.7365 205.75 46.2143 211.598 42.9733L206.751 34.2267C199.319 38.3457 193.394 44.1435 189.029 51.5381L197.64 56.6219ZM211.598 42.9733C217.464 39.7224 223.904 38.08 231.014 38.08V28.08C222.284 28.08 214.165 30.1176 206.751 34.2267L211.598 42.9733ZM231.014 38.08C238.214 38.08 244.643 39.7266 250.408 42.9607L255.301 34.2393C247.946 30.1134 239.815 28.08 231.014 28.08V38.08ZM250.431 42.9733C256.269 46.2092 260.855 50.719 264.246 56.5831L272.903 51.5769C268.614 44.161 262.719 38.3508 255.278 34.2267L250.431 42.9733ZM264.259 56.6059C267.609 62.3284 269.334 68.8814 269.334 76.4H279.334C279.334 67.2786 277.22 58.9516 272.889 51.5541L264.259 56.6059ZM269.334 76.4C269.334 83.9179 267.609 90.5215 264.246 96.3369L272.903 101.343C277.22 93.8785 279.334 85.5221 279.334 76.4H269.334ZM264.259 96.3141C260.867 102.11 256.267 106.642 250.391 109.969L255.318 118.671C262.722 114.478 268.602 108.69 272.889 101.366L264.259 96.3141ZM250.431 109.947C244.565 113.198 238.124 114.84 231.014 114.84V124.84C239.744 124.84 247.864 122.802 255.278 118.693L250.431 109.947ZM231.014 103C238.214 103 244.396 100.588 248.933 95.4179L241.416 88.822C239.073 91.4921 235.815 93 231.014 93V103ZM248.895 95.4606C253.427 90.4131 255.454 83.8786 255.454 76.4H245.454C245.454 82.0414 243.962 85.9869 241.454 88.7794L248.895 95.4606ZM255.454 76.4C255.454 68.8033 253.448 62.1866 248.86 57.1814L241.489 63.9386C243.941 66.6134 245.454 70.5567 245.454 76.4H255.454ZM248.933 57.262C244.396 52.0921 238.214 49.68 231.014 49.68V59.68C235.815 59.68 239.073 61.1879 241.416 63.8579L248.933 57.262ZM231.014 49.68C223.758 49.68 217.526 52.0769 212.976 57.262L220.493 63.8579C222.822 61.2031 226.11 59.68 231.014 59.68V49.68ZM213.01 57.2238C208.525 62.2307 206.574 68.8315 206.574 76.4H216.574C216.574 70.5285 218.064 66.5693 220.459 63.8962L213.01 57.2238ZM206.574 76.4C206.574 83.9122 208.536 90.4783 212.976 95.5379L220.493 88.9421C218.053 86.1617 216.574 82.1678 216.574 76.4H206.574ZM213.01 95.5762C217.57 100.667 223.792 103 231.014 103V93C226.077 93 222.778 91.4934 220.459 88.9038L213.01 95.5762ZM360.147 76.64L355.796 74.177C355.791 74.1862 355.786 74.1954 355.781 74.2047L360.147 76.64ZM349.467 86.72L351.793 91.1462C351.802 91.1414 351.811 91.1366 351.82 91.1318L349.467 86.72ZM320.427 90.44V85.44C317.666 85.44 315.427 87.6786 315.427 90.44H320.427ZM320.427 119V124C323.189 124 325.427 121.761 325.427 119H320.427ZM296.908 119H291.908C291.908 121.761 294.146 124 296.908 124V119ZM296.908 34.4V29.4C294.146 29.4 291.908 31.6386 291.908 34.4H296.908ZM349.348 38L347.081 42.4569C347.091 42.462 347.101 42.4671 347.111 42.4721L349.348 38ZM360.147 47.96L355.796 50.423V50.423L360.147 47.96ZM320.427 53.36V48.36C317.666 48.36 315.427 50.5986 315.427 53.36H320.427ZM320.427 71.72H315.427C315.427 74.4814 317.666 76.72 320.427 76.72V71.72ZM358.747 62.6C358.747 66.9024 357.749 70.727 355.796 74.177L364.499 79.103C367.346 74.073 368.747 68.5376 368.747 62.6H358.747ZM355.781 74.2047C353.992 77.4117 351.191 80.1341 347.115 82.3082L351.82 91.1318C357.344 88.1859 361.663 84.1883 364.514 79.0753L355.781 74.2047ZM347.142 82.2938C343.317 84.3034 338.366 85.44 332.068 85.44V95.44C339.529 95.44 346.178 94.0966 351.793 91.1462L347.142 82.2938ZM332.068 85.44H320.427V95.44H332.068V85.44ZM315.427 90.44V119H325.427V90.44H315.427ZM320.427 114H296.908V124H320.427V114ZM301.908 119V34.4H291.908V119H301.908ZM296.908 39.4H332.068V29.4H296.908V39.4ZM332.068 39.4C338.297 39.4 343.234 40.5008 347.081 42.4569L351.614 33.5431C346.021 30.6992 339.438 29.4 332.068 29.4V39.4ZM347.111 42.4721C351.116 44.4746 353.935 47.1353 355.796 50.423L364.499 45.497C361.56 40.3047 357.179 36.3254 351.584 33.5279L347.111 42.4721ZM355.796 50.423C357.717 53.8163 358.747 57.8265 358.747 62.6H368.747C368.747 56.3335 367.378 50.5837 364.499 45.497L355.796 50.423ZM329.788 76.72C333.774 76.72 337.697 75.8167 340.634 73.1276C343.654 70.3622 344.747 66.5296 344.747 62.6H334.747C334.747 64.7504 334.181 65.4778 333.881 65.7524C333.498 66.1033 332.441 66.72 329.788 66.72V76.72ZM344.747 62.6C344.747 58.649 343.665 54.7943 340.658 52.0045C337.722 49.2803 333.789 48.36 329.788 48.36V58.36C332.426 58.36 333.473 58.9797 333.857 59.3355C334.17 59.6257 334.747 60.391 334.747 62.6H344.747ZM329.788 48.36H320.427V58.36H329.788V48.36ZM315.427 53.36V71.72H325.427V53.36H315.427ZM320.427 76.72H329.788V66.72H320.427V76.72Z" fill="#996DFF"/>
</g>
<path d="M350.332 29.9799C346.488 20.6905 338.727 13.3698 327.271 8.22363C316.295 3.29175 302.386 0.548637 285.935 0.0743071C252.212 -0.900069 211.501 7.73502 171.311 24.3966C168.421 25.5938 165.557 26.8225 162.724 28.0826L166.73 28.094C168.449 27.3483 170.183 26.6139 171.93 25.891C254.274 -8.23789 333.636 -6.12627 348.839 30.6C353.242 41.2353 351.788 53.6221 345.5 66.6862C330.084 98.7406 285.575 134.861 227.072 159.109C221.413 161.455 215.748 163.638 210.091 165.658C175.771 177.922 141.874 184.137 113.113 183.306C96.874 182.837 83.1763 180.142 72.394 175.299C61.3233 170.327 53.8448 163.295 50.1641 154.4C46.8432 146.374 46.8546 137.35 49.7644 127.789L48.5222 126.386C45.1128 136.924 45.1585 146.545 48.6679 155.02C52.5142 164.31 60.2725 171.63 71.7316 176.776C82.708 181.708 96.6142 184.451 113.065 184.926C114.784 184.974 116.52 185 118.273 185C147.265 185 180.939 178.237 214.82 165.658C219.111 164.067 223.403 162.381 227.692 160.603C267.883 143.945 302.771 121.248 325.929 96.6947C335.035 87.0395 341.934 77.5129 346.506 68.2863C347.608 66.0661 348.573 63.8659 349.401 61.6857C353.864 49.9389 354.178 39.2722 350.332 29.9799Z" fill="url(#paint4_linear_24_2)"/>
<path d="M350.332 29.9799C346.488 20.6905 338.727 13.3698 327.271 8.22363C316.295 3.29175 302.386 0.548637 285.935 0.0743071C252.212 -0.900069 211.501 7.73502 171.311 24.3966C168.421 25.5938 165.557 26.8225 162.724 28.0826L166.73 28.094C168.449 27.3483 170.183 26.6139 171.93 25.891C254.274 -8.23789 333.636 -6.12627 348.839 30.6C353.242 41.2353 351.788 53.6221 345.5 66.6862C330.084 98.7406 285.575 134.861 227.072 159.109C221.413 161.455 215.748 163.638 210.091 165.658C175.771 177.922 141.874 184.137 113.113 183.306C96.874 182.837 83.1763 180.142 72.394 175.299C61.3233 170.327 53.8448 163.295 50.1641 154.4C46.8432 146.374 46.8546 137.35 49.7644 127.789L48.5222 126.386C45.1128 136.924 45.1585 146.545 48.6679 155.02C52.5142 164.31 60.2725 171.63 71.7316 176.776C82.708 181.708 96.6142 184.451 113.065 184.926C114.784 184.974 116.52 185 118.273 185C147.265 185 180.939 178.237 214.82 165.658C219.111 164.067 223.403 162.381 227.692 160.603C267.883 143.945 302.771 121.248 325.929 96.6947C335.035 87.0395 341.934 77.5129 346.506 68.2863C347.608 66.0661 348.573 63.8659 349.401 61.6857C353.864 49.9389 354.178 39.2722 350.332 29.9799Z" fill="url(#paint5_radial_24_2)"/>
<path d="M350.332 29.9799C346.488 20.6905 338.727 13.3698 327.271 8.22363C316.295 3.29175 302.386 0.548637 285.935 0.0743071C252.212 -0.900069 211.501 7.73502 171.311 24.3966C168.421 25.5938 165.557 26.8225 162.724 28.0826L166.73 28.094C168.449 27.3483 170.183 26.6139 171.93 25.891C254.274 -8.23789 333.636 -6.12627 348.839 30.6C353.242 41.2353 351.788 53.6221 345.5 66.6862C330.084 98.7406 285.575 134.861 227.072 159.109C221.413 161.455 215.748 163.638 210.091 165.658C175.771 177.922 141.874 184.137 113.113 183.306C96.874 182.837 83.1763 180.142 72.394 175.299C61.3233 170.327 53.8448 163.295 50.1641 154.4C46.8432 146.374 46.8546 137.35 49.7644 127.789L48.5222 126.386C45.1128 136.924 45.1585 146.545 48.6679 155.02C52.5142 164.31 60.2725 171.63 71.7316 176.776C82.708 181.708 96.6142 184.451 113.065 184.926C114.784 184.974 116.52 185 118.273 185C147.265 185 180.939 178.237 214.82 165.658C219.111 164.067 223.403 162.381 227.692 160.603C267.883 143.945 302.771 121.248 325.929 96.6947C335.035 87.0395 341.934 77.5129 346.506 68.2863C347.608 66.0661 348.573 63.8659 349.401 61.6857C353.864 49.9389 354.178 39.2722 350.332 29.9799Z" fill="url(#paint6_radial_24_2)"/>
<defs>
<filter id="filter0_d_24_2" x="30.2434" y="23.08" width="353.504" height="116.76" filterUnits="userSpaceOnUse" color-interpolation-filters="sRGB">
<feFlood flood-opacity="0" result="BackgroundImageFix"/>
<feColorMatrix in="SourceAlpha" type="matrix" values="0 0 0 0 0 0 0 0 0 0 0 0 0 0 0 0 0 0 127 0" result="hardAlpha"/>
<feOffset dx="5" dy="5"/>
<feGaussianBlur stdDeviation="7.5"/>
<feComposite in2="hardAlpha" operator="out"/>
<feColorMatrix type="matrix" values="0 0 0 0 0 0 0 0 0 0 0 0 0 0 0 0 0 0 0.25 0"/>
<feBlend mode="normal" in2="BackgroundImageFix" result="effect1_dropShadow_24_2"/>
<feBlend mode="normal" in="SourceGraphic" in2="effect1_dropShadow_24_2" result="shape"/>
</filter>
<linearGradient id="paint0_linear_24_2" x1="333.653" y1="132.441" x2="111.212" y2="133.582" gradientUnits="userSpaceOnUse">
<stop stop-color="#996DFF"/>
<stop offset="0.5" stop-color="#35E8B3"/>
<stop offset="1" stop-color="#E2D45C"/>
</linearGradient>
<radialGradient id="paint1_radial_24_2" cx="0" cy="0" r="1" gradientUnits="userSpaceOnUse" gradientTransform="translate(197.469 169.058) rotate(15.7712) scale(149.538 248.463)">
<stop stop-color="#171226"/>
<stop offset="1" stop-color="#171226" stop-opacity="0"/>
</radialGradient>
<radialGradient id="paint2_radial_24_2" cx="0" cy="0" r="1" gradientUnits="userSpaceOnUse" gradientTransform="translate(235.809 28.9063) rotate(-157.022) scale(33.6581 55.9183)">
<stop stop-color="#261945"/>
<stop offset="1" stop-color="#261945" stop-opacity="0"/>
</radialGradient>
<radialGradient id="paint3_radial_24_2" cx="0" cy="0" r="1" gradientUnits="userSpaceOnUse" gradientTransform="translate(350.831 124.034) rotate(76.738) scale(38.1578 63.3258)">
<stop stop-color="#191326"/>
<stop offset="1" stop-color="#191326" stop-opacity="0"/>
</radialGradient>
<linearGradient id="paint4_linear_24_2" x1="207.973" y1="20.4972" x2="257.751" y2="146.611" gradientUnits="userSpaceOnUse">
<stop stop-color="#996DFF"/>
<stop offset="0.5" stop-color="#35E8B3"/>
<stop offset="1" stop-color="#E2D45C"/>
</linearGradient>
<radialGradient id="paint5_radial_24_2" cx="0" cy="0" r="1" gradientUnits="userSpaceOnUse" gradientTransform="translate(159.653 31.7093) rotate(-19.3644) scale(76.0832 126.409)">
<stop stop-color="#171225"/>
<stop offset="1" stop-color="#171225" stop-opacity="0"/>
</radialGradient>
<radialGradient id="paint6_radial_24_2" cx="0" cy="0" r="1" gradientUnits="userSpaceOnUse" gradientTransform="translate(48.6579 125.786) rotate(67.4843) scale(51.2042 84.9881)">
<stop stop-color="#191327"/>
<stop offset="1" stop-color="#191327" stop-opacity="0"/>
</radialGradient>
</defs>
</svg>
